<svg width="275" height="275" viewBox="0 0 275 275" fill="none" xmlns="http://www.w3.org/2000/svg">
<path d="M133.203 42.4688H107.422C106.246 42.4688 105.306 42.0791 104.66 41.4336C104.015 40.788 103.625 39.8473 103.625 38.6719C103.625 37.4964 104.015 36.5558 104.66 35.9102C105.306 35.2646 106.246 34.875 107.422 34.875H133.203C134.379 34.875 135.319 35.2646 135.965 35.9102C136.61 36.5558 137 37.4964 137 38.6719C137 39.8473 136.61 40.788 135.965 41.4336C135.319 42.0791 134.379 42.4688 133.203 42.4688ZM133.203 162.781H107.422C106.246 162.781 105.306 162.392 104.66 161.746C104.015 161.1 103.625 160.16 103.625 158.984C103.625 157.809 104.015 156.868 104.66 156.223C105.306 155.577 106.246 155.188 107.422 155.188H133.203C134.379 155.188 135.319 155.577 135.965 156.223C136.61 156.868 137 157.809 137 158.984C137 160.16 136.61 161.1 135.965 161.746C135.319 162.392 134.379 162.781 133.203 162.781Z" fill="#1F6AFE" stroke="#1F6AFE"/>
<path d="M107.422 163.281H90.2344C87.6562 163.281 85.9375 161.563 85.9375 158.984C85.9375 156.406 87.6562 154.688 90.2344 154.688H107.422C110 154.688 111.719 156.406 111.719 158.984C111.719 161.563 110 163.281 107.422 163.281ZM90.2344 146.094H81.6406C79.0625 146.094 77.3438 144.375 77.3438 141.797C77.3438 139.219 79.0625 137.5 81.6406 137.5H90.2344C92.8125 137.5 94.5312 139.219 94.5312 141.797C94.5312 144.375 92.8125 146.094 90.2344 146.094ZM107.422 128.906H90.2344C87.6562 128.906 85.9375 127.188 85.9375 124.609C85.9375 122.031 87.6562 120.312 90.2344 120.312H107.422C110 120.312 111.719 122.031 111.719 124.609C111.719 127.188 110 128.906 107.422 128.906ZM73.0469 42.9688H71.3281C70.4688 42.9688 70.4688 42.1094 69.6094 42.1094C68.75 41.25 68.75 39.5313 68.75 38.6719C68.75 37.8125 68.75 36.0937 69.6094 35.2344C69.6094 35.2344 70.4688 34.375 71.3281 34.375H74.7656C75.625 34.375 75.625 35.2344 76.4844 35.2344C76.4844 36.0937 77.3438 37.8125 77.3438 38.6719V40.3906C77.3438 41.25 76.4844 41.25 76.4844 42.1094C76.4844 42.1094 75.625 42.9688 74.7656 42.9688H73.0469ZM73.0469 163.281H71.3281C70.4688 163.281 70.4688 162.422 69.6094 162.422C68.75 162.422 68.75 161.563 68.75 160.703V158.984C68.75 158.125 68.75 156.406 69.6094 155.547C71.3281 153.828 73.9063 153.828 75.625 155.547C76.4844 156.406 77.3438 158.125 77.3438 158.984V160.703C77.3438 161.563 76.4844 161.562 76.4844 162.422C76.4844 162.422 75.625 163.281 74.7656 163.281H73.0469ZM107.422 146.094H105.703C104.844 146.094 104.844 145.234 103.984 145.234C103.125 145.234 103.125 144.375 103.125 143.516V141.797C103.125 140.937 103.125 139.219 103.984 138.359C105.703 136.641 108.281 136.641 110 138.359C110.859 139.219 111.719 140.078 111.719 141.797V143.516C111.719 144.375 110.859 144.375 110.859 145.234C110.859 145.234 110 146.094 109.141 146.094H107.422ZM73.0469 128.906H71.3281C70.4688 128.906 70.4688 128.047 69.6094 128.047C68.75 128.047 68.75 127.187 68.75 126.328V122.891C68.75 122.031 69.6094 122.031 69.6094 121.172C71.3281 119.453 73.9063 119.453 75.625 121.172C76.4844 121.172 76.4844 122.031 76.4844 122.891V126.328C76.4844 127.187 75.625 127.187 75.625 128.047C75.625 128.047 74.7656 128.906 73.9063 128.906H73.0469ZM180.469 60.1562H60.1562C57.5781 60.1562 55.8594 58.4375 55.8594 55.8594C55.8594 53.2812 57.5781 51.5625 60.1562 51.5625H180.469C183.047 51.5625 184.766 53.2812 184.766 55.8594C184.766 58.4375 183.047 60.1562 180.469 60.1562ZM180.469 214.844H60.1562C57.5781 214.844 55.8594 213.125 55.8594 210.547C55.8594 207.969 57.5781 206.25 60.1562 206.25H180.469C183.047 206.25 184.766 207.969 184.766 210.547C184.766 213.125 183.047 214.844 180.469 214.844Z" fill="#1F6AFE"/>
<path d="M167.578 257.812H73.0469C61.0156 257.812 51.5625 248.359 51.5625 236.328V38.6719C51.5625 26.6406 61.0156 17.1875 73.0469 17.1875H167.578C179.609 17.1875 189.062 26.6406 189.062 38.6719V98.8281C189.062 101.406 187.344 103.125 184.766 103.125C182.187 103.125 180.469 101.406 180.469 98.8281V38.6719C180.469 31.7969 174.453 25.7812 167.578 25.7812H73.0469C66.1719 25.7812 60.1562 31.7969 60.1562 38.6719V236.328C60.1562 243.203 66.1719 249.219 73.0469 249.219H167.578C174.453 249.219 180.469 243.203 180.469 236.328V158.984C180.469 156.406 182.187 154.688 184.766 154.688C187.344 154.688 189.062 156.406 189.062 158.984V236.328C189.062 248.359 179.609 257.812 167.578 257.812Z" fill="#1F6AFE"/>
<path d="M133.203 240.625H107.422C104.844 240.625 103.125 238.906 103.125 236.328V227.734C103.125 225.156 104.844 223.438 107.422 223.438H133.203C135.781 223.438 137.5 225.156 137.5 227.734V236.328C137.5 238.906 135.781 240.625 133.203 240.625ZM210.547 163.281H133.203C126.328 163.281 120.312 157.266 120.312 150.391V107.422C120.312 100.547 126.328 94.5312 133.203 94.5312H210.547C217.422 94.5312 223.438 100.547 223.438 107.422V150.391C223.438 157.266 217.422 163.281 210.547 163.281ZM133.203 103.125C130.625 103.125 128.906 104.844 128.906 107.422V150.391C128.906 152.969 130.625 154.688 133.203 154.688H210.547C213.125 154.688 214.844 152.969 214.844 150.391V107.422C214.844 104.844 213.125 103.125 210.547 103.125H133.203Z" fill="#1F6AFE"/>
<path d="M171.875 128.906C171.016 128.906 170.156 128.906 170.156 128.047L126.328 103.984C124.609 103.125 123.75 100.547 124.609 97.9688C125.469 96.2501 128.047 95.3907 130.625 96.2501L172.734 118.594L214.844 96.2501C216.562 95.3907 219.141 96.2501 220.859 97.9688C221.719 99.6876 220.859 102.266 219.141 103.984L175.312 128.047C173.594 128.906 172.734 128.906 171.875 128.906Z" fill="#1F6AFE"/>
</svg>
